<svg width="1474" height="304" viewBox="0 0 1474 304" fill="none" xmlns="http://www.w3.org/2000/svg">
<rect width="1474" height="304" rx="62" fill="#363F5F"/>
<path d="M135.003 159.137C135.003 148.425 137.137 138.938 141.405 130.678C145.798 122.418 151.697 116.029 159.103 111.512C166.634 106.866 174.981 104.543 184.144 104.543C190.922 104.543 197.575 106.091 204.102 109.189C210.754 112.157 216.026 116.158 219.917 121.192V69.6951H241.569V212.957H219.917V196.889C216.402 202.051 211.507 206.31 205.231 209.666C199.081 213.022 191.989 214.699 183.956 214.699C174.918 214.699 166.634 212.376 159.103 207.73C151.697 202.955 145.798 196.372 141.405 187.983C137.137 179.465 135.003 169.849 135.003 159.137ZM219.917 159.524C219.917 152.168 218.411 145.779 215.398 140.358C212.511 134.937 208.683 130.807 203.913 127.968C199.144 125.128 193.997 123.709 188.474 123.709C182.952 123.709 177.805 125.128 173.036 127.968C168.266 130.678 164.375 134.744 161.362 140.165C158.475 145.456 157.032 151.78 157.032 159.137C157.032 166.494 158.475 172.947 161.362 178.497C164.375 184.047 168.266 188.306 173.036 191.274C177.931 194.114 183.077 195.533 188.474 195.533C193.997 195.533 199.144 194.114 203.913 191.274C208.683 188.435 212.511 184.305 215.398 178.884C218.411 173.334 219.917 166.881 219.917 159.524Z" fill="white"/>
<path d="M364.841 157.007C364.841 161.009 364.59 164.622 364.088 167.849H284.823C285.45 176.367 288.526 183.208 294.048 188.37C299.571 193.533 306.349 196.114 314.382 196.114C325.93 196.114 334.089 191.145 338.859 181.207H362.017C358.879 191.016 353.168 199.083 344.883 205.407C336.725 211.602 326.558 214.699 314.382 214.699C304.466 214.699 295.555 212.441 287.647 207.924C279.865 203.277 273.714 196.824 269.196 188.564C264.803 180.175 262.606 170.495 262.606 159.524C262.606 148.554 264.74 138.938 269.007 130.678C273.401 122.289 279.488 115.836 287.27 111.319C295.178 106.801 304.215 104.543 314.382 104.543C324.173 104.543 332.896 106.737 340.553 111.125C348.21 115.513 354.172 121.708 358.44 129.71C362.707 137.583 364.841 146.682 364.841 157.007ZM342.436 150.038C342.31 141.907 339.486 135.389 333.963 130.485C328.441 125.58 321.6 123.128 313.441 123.128C306.035 123.128 299.697 125.58 294.425 130.485C289.153 135.26 286.015 141.778 285.011 150.038H342.436Z" fill="white"/>
<path d="M426.067 193.21L455.438 106.285H478.22L438.681 212.957H413.075L373.725 106.285H396.695L426.067 193.21Z" fill="white"/>
<path d="M503.105 214.312C499.214 214.312 495.95 212.957 493.314 210.247C490.678 207.536 489.36 204.181 489.36 200.18C489.36 196.179 490.678 192.823 493.314 190.113C495.95 187.402 499.214 186.047 503.105 186.047C506.87 186.047 510.071 187.402 512.707 190.113C515.343 192.823 516.661 196.179 516.661 200.18C516.661 204.181 515.343 207.536 512.707 210.247C510.071 212.957 506.87 214.312 503.105 214.312Z" fill="white"/>
<path d="M583.351 124.29H564.147V212.957H542.495V124.29H530.256V106.285H542.495V98.7347C542.495 86.4735 545.633 77.5681 551.908 72.0183C558.31 66.3394 568.289 63.5 581.845 63.5V81.8917C575.318 81.8917 570.736 83.1824 568.1 85.7637C565.464 88.2159 564.147 92.5396 564.147 98.7347V106.285H583.351V124.29Z" fill="white"/>
<path d="M613.293 92.1524C609.402 92.1524 606.138 90.7972 603.502 88.0868C600.867 85.3765 599.549 82.0208 599.549 78.0198C599.549 74.0188 600.867 70.6631 603.502 67.9527C606.138 65.2424 609.402 63.8872 613.293 63.8872C617.059 63.8872 620.259 65.2424 622.895 67.9527C625.531 70.6631 626.849 74.0188 626.849 78.0198C626.849 82.0208 625.531 85.3765 622.895 88.0868C620.259 90.7972 617.059 92.1524 613.293 92.1524ZM623.837 106.285V212.957H602.373V106.285H623.837Z" fill="white"/>
<path d="M704.358 104.543C712.516 104.543 719.797 106.285 726.198 109.77C732.725 113.254 737.809 118.417 741.449 125.258C745.089 132.098 746.909 140.358 746.909 150.038V212.957H725.633V153.329C725.633 143.778 723.311 136.486 718.667 131.453C714.023 126.29 707.684 123.709 699.651 123.709C691.618 123.709 685.216 126.29 680.446 131.453C675.802 136.486 673.48 143.778 673.48 153.329V212.957H652.016V106.285H673.48V118.482C676.995 114.093 681.451 110.673 686.848 108.221C692.371 105.769 698.207 104.543 704.358 104.543Z" fill="white"/>
<path d="M767.132 159.137C767.132 148.425 769.266 138.938 773.534 130.678C777.927 122.418 783.826 116.029 791.232 111.512C798.763 106.866 807.047 104.543 816.085 104.543C824.243 104.543 831.335 106.22 837.36 109.576C843.51 112.803 848.406 116.868 852.046 121.773V106.285H873.698V212.957H852.046V197.082C848.406 202.116 843.448 206.31 837.172 209.666C830.896 213.022 823.741 214.699 815.708 214.699C806.796 214.699 798.638 212.376 791.232 207.73C783.826 202.955 777.927 196.372 773.534 187.983C769.266 179.465 767.132 169.849 767.132 159.137ZM852.046 159.524C852.046 152.168 850.54 145.779 847.527 140.358C844.64 134.937 840.812 130.807 836.042 127.968C831.272 125.128 826.126 123.709 820.603 123.709C815.08 123.709 809.934 125.128 805.164 127.968C800.395 130.678 796.504 134.744 793.491 140.165C790.604 145.456 789.161 151.78 789.161 159.137C789.161 166.494 790.604 172.947 793.491 178.497C796.504 184.047 800.395 188.306 805.164 191.274C810.06 194.114 815.206 195.533 820.603 195.533C826.126 195.533 831.272 194.114 836.042 191.274C840.812 188.435 844.64 184.305 847.527 178.884C850.54 173.334 852.046 166.881 852.046 159.524Z" fill="white"/>
<path d="M954.231 104.543C962.389 104.543 969.67 106.285 976.071 109.77C982.598 113.254 987.681 118.417 991.321 125.258C994.961 132.098 996.781 140.358 996.781 150.038V212.957H975.506V153.329C975.506 143.778 973.184 136.486 968.54 131.453C963.896 126.29 957.557 123.709 949.524 123.709C941.49 123.709 935.089 126.29 930.319 131.453C925.675 136.486 923.353 143.778 923.353 153.329V212.957H901.889V106.285H923.353V118.482C926.868 114.093 931.324 110.673 936.721 108.221C942.244 105.769 948.08 104.543 954.231 104.543Z" fill="white"/>
<path d="M1017.01 159.524C1017.01 148.554 1019.14 138.938 1023.41 130.678C1027.8 122.289 1033.82 115.836 1041.48 111.319C1049.14 106.801 1057.92 104.543 1067.84 104.543C1080.39 104.543 1090.75 107.64 1098.91 113.835C1107.19 119.901 1112.78 128.613 1115.66 139.971H1092.5C1090.62 134.679 1087.61 130.549 1083.47 127.581C1079.33 124.612 1074.12 123.128 1067.84 123.128C1059.05 123.128 1052.02 126.355 1046.75 132.808C1041.61 139.132 1039.03 148.037 1039.03 159.524C1039.03 171.011 1041.61 179.981 1046.75 186.434C1052.02 192.888 1059.05 196.114 1067.84 196.114C1080.27 196.114 1088.49 190.5 1092.5 179.271H1115.66C1112.65 190.113 1107 198.76 1098.72 205.213C1090.43 211.537 1080.14 214.699 1067.84 214.699C1057.92 214.699 1049.14 212.441 1041.48 207.924C1033.82 203.277 1027.8 196.824 1023.41 188.564C1019.14 180.175 1017.01 170.495 1017.01 159.524Z" fill="white"/>
<path d="M1232.13 157.007C1232.13 161.009 1231.88 164.622 1231.38 167.849H1152.12C1152.74 176.367 1155.82 183.208 1161.34 188.37C1166.86 193.533 1173.64 196.114 1181.67 196.114C1193.22 196.114 1201.38 191.145 1206.15 181.207H1229.31C1226.17 191.016 1220.46 199.083 1212.18 205.407C1204.02 211.602 1193.85 214.699 1181.67 214.699C1171.76 214.699 1162.85 212.441 1154.94 207.924C1147.16 203.277 1141.01 196.824 1136.49 188.564C1132.1 180.175 1129.9 170.495 1129.9 159.524C1129.9 148.554 1132.03 138.938 1136.3 130.678C1140.69 122.289 1146.78 115.836 1154.56 111.319C1162.47 106.801 1171.51 104.543 1181.67 104.543C1191.47 104.543 1200.19 106.737 1207.85 111.125C1215.5 115.513 1221.46 121.708 1225.73 129.71C1230 137.583 1232.13 146.682 1232.13 157.007ZM1209.73 150.038C1209.6 141.907 1206.78 135.389 1201.26 130.485C1195.73 125.58 1188.89 123.128 1180.73 123.128C1173.33 123.128 1166.99 125.58 1161.72 130.485C1156.45 135.26 1153.31 141.778 1152.3 150.038H1209.73Z" fill="white"/>
<path d="M503.107 214.313C499.216 214.313 495.952 212.957 493.317 210.247C490.681 207.537 489.363 204.181 489.363 200.18C489.363 196.179 490.681 192.823 493.317 190.113C495.952 187.403 499.216 186.047 503.107 186.047C506.873 186.047 510.073 187.403 512.709 190.113C515.345 192.823 516.663 196.179 516.663 200.18C516.663 204.181 515.345 207.537 512.709 210.247C510.073 212.957 506.873 214.313 503.107 214.313Z" fill="#49AA26"/>
<path d="M1339 184.775C1339 190.24 1337.41 195.377 1334.25 200.186C1331.21 204.995 1326.64 209.039 1320.56 212.318C1314.61 215.597 1307.52 217.564 1299.28 218.22V231.5H1286.93V218.22C1275.02 217.237 1265.39 214.012 1258.05 208.547C1250.7 203.082 1247.02 195.869 1247.02 186.906H1270.21C1270.59 191.169 1272.17 194.721 1274.96 197.563C1277.75 200.295 1281.74 202.044 1286.93 202.809V166.74C1278.44 164.882 1271.54 163.024 1266.22 161.166C1260.9 159.199 1256.34 156.138 1252.54 151.985C1248.86 147.832 1247.02 142.148 1247.02 134.934C1247.02 125.862 1250.7 118.375 1258.05 112.473C1265.39 106.462 1275.02 102.964 1286.93 101.98V88.7006H1299.28V101.98C1310.43 102.855 1319.36 105.915 1326.07 111.162C1332.92 116.299 1336.78 123.403 1337.67 132.475H1314.48C1314.1 129.087 1312.58 126.081 1309.92 123.458C1307.26 120.725 1303.72 118.867 1299.28 117.884V153.297C1307.77 155.045 1314.67 156.903 1319.99 158.871C1325.31 160.729 1329.81 163.735 1333.49 167.888C1337.16 171.932 1339 177.561 1339 184.775ZM1269.07 133.951C1269.07 138.432 1270.59 141.929 1273.63 144.443C1276.8 146.957 1281.23 148.979 1286.93 150.509V117.392C1281.48 117.938 1277.11 119.632 1273.82 122.474C1270.65 125.316 1269.07 129.141 1269.07 133.951ZM1299.28 202.809C1304.86 202.044 1309.23 200.131 1312.39 197.071C1315.56 193.901 1317.14 190.13 1317.14 185.758C1317.14 181.386 1315.56 177.998 1312.39 175.594C1309.35 173.08 1304.98 171.058 1299.28 169.527V202.809Z" fill="#49AA26"/>
</svg>
